/* XPM */
static char *result[] = {
/* columns rows colors chars-per-pixel */
"64 64 190 2 ",
"   c black",
".  c #010101",
"X  c #020202",
"o  c gray1",
"O  c #040404",
"+  c gray2",
"@  c #060606",
"#  c #070707",
"$  c gray3",
"%  c #090909",
"&  c gray4",
"*  c #0B0B0B",
"=  c #0C0C0C",
"-  c gray5",
";  c #0E0E0E",
":  c #101010",
">  c #111111",
",  c gray7",
"<  c gray8",
"1  c #151515",
"2  c #161616",
"3  c gray9",
"4  c #181818",
"5  c gray10",
"6  c gray11",
"7  c #1D1D1D",
"8  c gray12",
"9  c gray13",
"0  c #222222",
"q  c gray14",
"w  c #272727",
"e  c #282828",
"r  c gray16",
"t  c #2A2A2A",
"y  c #2C2C2C",
"u  c #2D2D2D",
"i  c gray18",
"p  c gray19",
"a  c #313131",
"s  c gray20",
"d  c #353535",
"f  c gray21",
"g  c #373737",
"h  c #393939",
"j  c gray23",
"k  c #3E3E3E",
"l  c gray25",
"z  c #414141",
"x  c #434343",
"c  c gray27",
"v  c #484848",
"b  c gray29",
"n  c #4C4C4C",
"m  c gray30",
"M  c #505050",
"N  c gray32",
"B  c gray33",
"V  c #555555",
"C  c gray34",
"Z  c #5A5A5A",
"A  c gray36",
"S  c #5F5F5F",
"D  c gray38",
"F  c #626262",
"G  c gray39",
"H  c #646464",
"J  c gray40",
"K  c DimGray",
"L  c #6C6C6C",
"P  c gray43",
"I  c gray44",
"U  c #717171",
"Y  c #747474",
"T  c #767676",
"R  c gray47",
"E  c gray48",
"W  c gray49",
"Q  c gray51",
"!  c #838383",
"~  c #848484",
"^  c gray52",
"/  c gray53",
"(  c #888888",
")  c gray54",
"_  c gray55",
"`  c #8D8D8D",
"'  c gray56",
"]  c #909090",
"[  c #929292",
"{  c gray58",
"}  c #979797",
"|  c gray60",
" . c #9A9A9A",
".. c gray61",
"X. c #9D9D9D",
"o. c gray62",
"O. c #9F9F9F",
"+. c #A0A0A0",
"@. c gray63",
"#. c gray64",
"$. c #A4A4A4",
"%. c gray65",
"&. c #A7A7A7",
"*. c #A9A9A9",
"=. c #AAAAAA",
"-. c gray67",
";. c #ACACAC",
":. c gray68",
">. c #AEAEAE",
",. c #AFAFAF",
"<. c gray69",
"1. c #B1B1B1",
"2. c #B2B2B2",
"3. c gray70",
"4. c #B4B4B4",
"5. c gray71",
"6. c #B6B6B6",
"7. c #B7B7B7",
"8. c gray72",
"9. c #B9B9B9",
"0. c gray73",
"q. c #BBBBBB",
"w. c #BCBCBC",
"e. c gray74",
"r. c gray",
"t. c gray75",
"y. c #C0C0C0",
"u. c #C1C1C1",
"i. c gray76",
"p. c #C3C3C3",
"a. c gray77",
"s. c #C5C5C5",
"d. c #C6C6C6",
"f. c gray78",
"g. c #C8C8C8",
"h. c gray79",
"j. c #CACACA",
"k. c #CBCBCB",
"l. c gray80",
"z. c #CDCDCD",
"x. c #CECECE",
"c. c gray81",
"v. c #D0D0D0",
"b. c gray82",
"n. c #D2D2D2",
"m. c LightGray",
"M. c gray83",
"N. c #D5D5D5",
"B. c gray84",
"V. c #D7D7D7",
"C. c #D8D8D8",
"Z. c gray85",
"A. c #DADADA",
"S. c gray86",
"D. c gainsboro",
"F. c #DDDDDD",
"G. c gray87",
"H. c #DFDFDF",
"J. c gray88",
"K. c #E1E1E1",
"L. c #E2E2E2",
"P. c gray89",
"I. c #E4E4E4",
"U. c gray90",
"Y. c #E6E6E6",
"T. c #E7E7E7",
"R. c gray91",
"E. c #E9E9E9",
"W. c #EAEAEA",
"Q. c gray92",
"!. c #ECECEC",
"~. c gray93",
"^. c #EEEEEE",
"/. c #EFEFEF",
"(. c gray94",
"). c #F1F1F1",
"_. c gray95",
"`. c #F3F3F3",
"'. c #F4F4F4",
"]. c gray96",
"[. c #F6F6F6",
"{. c gray97",
"}. c #F8F8F8",
"|. c #F9F9F9",
" X c gray98",
".X c #FBFBFB",
"XX c gray99",
"oX c #FDFDFD",
"OX c #FEFEFE",
"+X c white",
/* pixels */
"+X+X+X+X+X+X+X+X+X+X+X+X+X+X+X+X+X+X+X+X+X+X+X+X+X+X+X+X+X+X+X+X+X+X+X+X+X+X+X+X+X+X+X+X+X+X+X+X+X+X+X+X+X+X+X+X+X+X+X+X+X+X+X+X",
"+X+X+X+X+X+X+X+X+X+X+X+X+X+X+X+X+X+X+X+X+X+X+X+X+X+X+X+X+X+X+X+X+X+X+X+X+X+X+X+X+X+X+X+X+X+X+X+X+X+X+X+X+X+X+X+X+X+X+X+X+X+X+X+X",
"+X+X+X+X+X+X+X+X+X+X+X+X+X+X+X+X+X+X+X+X+X+X+X+X+X+X+X+X+X+X+X+X+X+X+X+X+X+X+X+X+X+X+X+X+X+X+X+X+X+X+X+X+X+X+X+X+X+X+X+X+X+X+X+X",
"+X+X+X+X+X+X+X+X+X+X+X+X+X+X+X+X+X+X+XoXy.M.+X+X+X+X+X+X+X+X+X+X+X+X+X+X+X+X+X+X+X+X+X+X+X+X+X+X+X+X+X+X+X+X+X+X+X+X+X+X+X+X+X+X",
"+X+X+X+X+X+X+X+X+X+X+X+X+X+X+X+X+X+X+Xj.    @ v R %.M.oX+X+X+X+X+X+X+X+X+X+X+X+X+X+X+X+X+X+X+X+X+X+X+X+X+X+X+X+X+X+X+X+X+X+X+X+X",
"+X+X+X+X+X+X+X+X+X+X+X+X+X+X+X+X+X+X+X^               $ a z Y e.Q.+X+X+X+X+X+X+X+X+X+X+X+X+X+X+X+X+X+X+X+X+X+X+X+X+X+X+X+X+X+X+X",
"+X+X+X+X+X+X+X+X+X+X+X+X+X+X+X+X+X+X+Xx                           5 v R %.M.oX+X+X+X+X+X+X+X+X+X+X+X+X+X+X+X+X+X+X+X+X+X+X+X+X+X",
"+X+X+X+X+X+X+X+X+X+X+X+X+X+X+X+X+X+X}.$                 p                   $ a D ' e.Q.+X+X+X+X+X+X+X+X+X+X+X+X+X+X+X+X+X+X+X+X",
"+X+X+X+X+X+X+X+X+X+X+X+X+X+X+X+X+X+Xq.                  @       ;.%.R v 5               o , p S X.I.+X+X+X+X+X+X+X+X+X+X+X+X+X+X",
"+X+X+X+X+X+X+X+X+X+X+X+X+X+X+X+X+X+XT                         a +X+X+X+X+XQ.e.U     X               q b E e.Q.+X+X+X+X+X+X+X+X+X",
"+X+X+X+X+X+X+X+X+X+X+X+X+X+X+X+X+X+Xa                         { +X+X+X+X+X+X+XT                               5 v R %.M.oX+X+X+X",
"+X+X+X+X+X+X+X+X+X+X+X+X+X+X+X+X+XQ.o                       X Q.+X+X+X+X+X+X+X8                                         Q.+X+X+X",
"+X+X+X+X+X+X+X+X+X+X+X+X+X+X+X+X+X-.    6 *         X         P.+X+X+X+X+X+Xj.              o 7             ~ %.R k     l +X+X+X",
"+X+X+X+X+X+X+X+X+X+X+X+X+X+X+X+X+XJ     R Y.J o               | +X+X+X+X+X+XP                 X           o Q.+X+X'     R +X+X+X",
"+X+X+X+X+X+X+X+X+X+X+X+X+X+X+X+X+X0     q.+X+Xn.c     4       w +X+X+X+X+XoX5           X                 j +X+X+Xc     y.+X+X+X",
"+X+X+X+X+X+X+X+X+X+X+X+X+X+X+X+XG.    $ }.+X+X+X+X6.C C       @ j D ^ *.l.9.      o                       ( +X+X`.@   : oX+X+X+X",
"+X+X+X+X+X+X+X+X+X+X+X+X+X+X+X+X|     c +X+X+X+X+X+X+Xb                                       .           M.+X+X>.    C +X+X+X+X",
"+X+X+X+X+X+X+X+X+X+X+X+X+X+X+X+XV     ( +X+X+X+X+X+X.X%                     .                           q +X+X+XH     @.+X+X+X+X",
"+X+X+X+X+X+X+X+X+X+X+X+X+X+X+XoX,     l.+X+X+X+X+Xf.w                       i } / O.r           o       U +X+X+X5   o Q.+X+X+X+X",
"+X+X+X+X+X+X+X+X+X+X+X+X+X+X+Xc.    o J <.(.+X(.K o                         V +X+X+XoX-.y               7 ! Y.l.    h +X+X+X+X+X",
"+X+X+X+X+X+X+X+X+X+X+X+X+X+X+X)           @ w =                             R +X+X+X+X+XoX-.a               o r     ! +X+X+X+X+X",
"+X+X+X+X+X+X+X+X+X+X+X+X+X+X+Xc                       .                     O.+X+X+X+X+X+X+X+Xg                     l.+X+X+X+X+X",
"+X+X+X+X+X+X+X+X+X+X+X+X+X+X}.$                   : 8.(.-.r & X             p 8.+X+X+X+X+X+XY.o     X             5 +X+X+X+X+X+X",
"+X+X+X+X+X+X+X+X+X+X+X+X+X+Xe.          .         q.+X+X+X+X+XE.! 3             x c.+X+X+X+X)       @ > % .       H +X+X+X+X+X+X",
"+X+X+X+X+X+X+X+X+X+X+X+X+X+XR                   d +X+X+X+X+X+X+X+XF.              o Z K.+X+Xy                     >.+X+X+X+X+X+X",
"+X+X+X+X+X+X+X+X+X+X+X+X+X+Xf     e O         : E.+X+X+X+X+X+X+X+Xf.      @           $ U 0.                    @ `.+X+X+X+X+X+X",
"+X+X+X+X+X+X+X+X+X+X+X+X+X^.o         .       { +X+X+X+X+X+X+X+X+X$.                      O       X $ * ; -     c +X+X+X+X+X+X+X",
"+X+X+X+X+X+X+X+X+X+X+X+X+X>.    2 w           i R f.oX+X+X+X+X+X+X(       #       w           .                 ' +X+X+X+X+X+X+X",
"+X+X+X+X+X+X+X+X+X+X+X+X+XK     T +XZ.' x @         1 A %.(.+X+X+XH       @       O ; >                         Z.+X+X+X+X+X+X+X",
"+X+X+X+X+X+X+X+X+X+X+X+X+Xw     8.+X+X+X+X(.-.D 3         o l ) M.v                   u                       q +X+X+X+X+X+X+X+X",
"+X+X+X+X+X+X+X+X+X+X+X+XK.    $ ].+X+X+X+X+X+X+XoXf.W s           +                         $ T.j.%.! S 9     U +X+X+X+X+X+X+X+X",
"+X+X+X+X+X+X+X+X+X+X+X+XO.    l +X+X+X+X+X+X+X+X+X+X+X+XY...M -           @ - X             v +X+X+X+X+Xb     8.+X+X+X+X+X+X+X+X",
"+X+X+X+X+X+X+X+X+X+X+X+XZ     ^ +X+X+X+X+X+X+X+X+X+X+X+X+X+X+X}.8.L 0                       ' +X+X+X+X}.$   -  X+X+X+X+X+X+X+X+X",
"+X+X+X+X+X+X+X+X+X+X+X+X1     f.+X+X+X+X+X+X+X+X+X+X+X+X+X+X+X+X+X+X+XM.) l o         +     c.+X+X+X+X3.    M +X+X+X+X+X+X+X+X+X",
"+X+X+X+X+X+X+X+X+X+X+Xc.    : oX+X+X+X+X+X+X+X+X+X+X+X+X+X+X+X+X+X+X+X+X+X+X(.%.A 1         @ x ' Z.+XL     ..+X+X+X+X+X+X+X+X+X",
"+X+X+X+X+X+X+X+X+X+X+X`     M +X+X+X+X+X+X+X+X+X+X+X+X+X+X+X+X+X+X+X+X+X+X+X+X+X+XoXf.R i           w t @   Y.+X+X+X+X+X+X+X+X+X",
"+X+X+X+X+X+X+X+X+X+X+Xv     { +X+X+X+X+X+X+X+X+X+X+X+X+X+X+X+X+X+X+X+X+X+X+X+X+X+X+X+X+X+XK.} m $         n.+X+X+X+X+X+X+X+X+X+X",
"+X+X+X+X+X+X+X+X+X+X X*     Z.+X+X+X+X+X+X+X+X+X+X+X+X+X+X+X+X+X+X+X+X+X+X+X+X+X+X+X+X+X+X+X+X+X}.3.K q a +X+X+X+X+X+X+X+X+X+X+X",
"+X+X+X+X+X+X+X+X+X+Xi.    7 +X+X+X+X+X+X+X+X+X+X+X+X+X+X+X+X+X+X+X+X+X+X+X+X+X+X+X+X+X+X+X+X+X+X+X+X+X+X+X+X+X+X+X+X+X+X+X+X+X+X",
"+X+X+X+X+X+X+X+X+X+XW     D +X+X+X+X+X+X+X+X+X+X+X+X+X+X+X+X+X+X+X+X+X+X+X+X+X+X+X+X+X+X+X+X+X+X+X+X+X+X+X+X+X+X+X+X+X+X+X+X+X+X",
"+X+X+X+X+X+X+X+X+X+Xh     %.+X+X+X+X+X+X+X+X+X+X+X+X+X+X+X+X+X+X+X+X+X+X+X+X+X+X+X+X+X+X+X+X+X+X+X+X+X+X+X+X+X+X+X+X+X+X+X+X+X+X",
"+X+X+X+X+X+X+X+X+X(.o     E.+X+X+X+X+X+X+X+X+X+X+X+X+X+X+X+X+X+X+X+X+X+X+X+X+X+X+X+X+X+X+X+X+X+X+X+X+X+X+X+X+X+X+X+X+X+X+X+X+X+X",
"+X+X+X+X+X+X+X+X+X<.    i +X+X+X+X+X+X+X+X+X+X+X+X+X+X+X+X+X+X+X+X+X+X+X+X+X+X+X+X+X+X+X+X+X+X+X+X+X+X+X+X+X+X+X+X+X+X+X+X+X+X+X",
"+X+X+X+X+X+X+X+X+XL     U +X+X+X+X+X+X+X+X+X+X+X+X+X+X+X+X+X+X+X+X+X+X+X+X+X+X+X+X+X+X+X+X+X+X+X+X+X+X+X+X+X+X+X+X+X+X+X+X+X+X+X",
"+X+X+X+X+X+X+X+X+Xr     6.+X+X+X+X+X+X+X+X+X+X+X+X+X+X+X+X+X+X+X+X+X+X+X+X+X+X+X+X+X+X+X+X+X+X+X+X+X+X+X+X+X+X+X+X+X+X+X+X+X+X+X",
"+X+X+X+X+X+X+X+XY.    @ `.+X+X+X+X+X+X+X+X+X+X+X+X+X+X+X+X+X+X+X+X+X+X+X+X+X+X+X+X+X+X+X+X+X+X+X+X+X+X+X+X+X+X+X+X+X+X+X+X+X+X+X",
"+X+X+X+X+X+X+X+XO.    k .X+X+X+X+X+X+X+X+X+X+X+X+X+X+X+X+X+X+X+X+X+X+X+XOXoXXXXX.X X X.X.XXXoXOX+X+X+X+X+X+X+X+X+X+X+X+X+X+X+X+X",
"+X+X+X+X+X+X+X+XA     ! oX+X+X+X+X+XoX.X|.}.}.}.}.}.}.}.}.}.}.}.|.}.}.{.[.].'.`.`._._._.`.'.].{.|.XXOX+X+X+X+X+X+X+X+X+X+X+X+X+X",
"+X+X+X+X+X+X+X+X5     i. X+X+XXX|.`./.~.W.R.R.R.R.R.R.R.R.R.E.W.W.W.W.W.W.E.R.T.T.T.T.R.E.W.Q.^.).'.{..XOX+X+X+X+X+X+X+X+X+X+X+X",
"+X+X+X+X+X+X+XM.    < R. X}.(.R.H.A.B.M.n.n.n.n.n.n.n.n.m.M.N.B.V.C.C.C.C.C.C.C.C.Z.A.S.D.F.H.L.Y.W./.'.}.XXOX+X+X+X+X+X+X+X+X+X",
"+X+X+X+X+X+X+X'     m H.Z.g.q.4.2.2.2.3.5.7.9.q.w.e.r.t.y.u.i.i.p.a.a.a.s.d.f.g.g.h.j.l.z.c.b.M.C.F.P.Q._.}.XXOX+X+X+X+X+X+X+X+X",
"+X+X+X+X+X+X+Xm     - 9 k B G I W ( [ | O.#.&.-.:.<.1.2.3.4.5.5.5.5.5.5.7.8.0.w.e.r.t.u.i.a.f.k.c.M.S.L.Q.'. XOX+X+X+X+X+X+X+X+X",
"+X+X+X+X+X+X+XM       X & 7 s n F Y Q _ {  .O.#.%.*.-.;.:.>.>.>.:.:.;.:.,.1.3.5.6.8.9.0.w.r.u.s.j.c.N.F.Y.).|.oX+X+X+X+X+X+X+X+X",
"+X+X+X+X+X+X+X+X    + < e k N F I W ( ] } X.@.$.&.=.-.;.:.:.:.:.:.;.-.-.:.,.1.3.4.6.7.9.0.e.y.p.g.z.M.S.U.(.}.oX+X+X+X+X+X+X+X+X",
"+X+X+X+X+X+X+X+X+X+X|.K.h.7.*.@.o.X.+.$.&.=.:.>.<.1.3.3.3.4.3.3.2.1.<.<.2.3.5.6.7.9.0.q.e.t.i.s.j.c.N.F.Y.).|.oX+X+X+X+X+X+X+X+X",
"+X+X+X+X+X+X+X+X+X+X+X+X X).U.C.x.g.a.i.u.y.y.y.t.y.y.y.y.y.t.t.r.e.e.w.e.e.r.t.y.u.u.i.a.d.g.k.c.M.A.L.Q.'. XOX+X+X+X+X+X+X+X+X",
"+X+X+X+X+X+X+X+X+X+X+X+X+X+X.X'.~.Y.K.F.A.V.B.N.M.m.m.n.n.b.b.v.v.c.c.c.x.x.z.z.z.z.z.x.c.v.n.N.C.F.L.W._.}.XXOX+X+X+X+X+X+X+X+X",
"+X+X+X+X+X+X+X+X+X+X+X+X+X+X+X+XXX|.].).~.Q.E.R.T.Y.U.I.P.P.L.L.L.L.P.P.L.K.J.H.G.G.G.G.G.H.J.L.U.E.~._.{..XOX+X+X+X+X+X+X+X+X+X",
"+X+X+X+X+X+X+X+X+X+X+X+X+X+X+X+X+X+XOXXX X}.{.[.].'.`._._.).).).).).)._.).).(./.^.~.!.!.Q.Q.!.^.(._.].}..XoX+X+X+X+X+X+X+X+X+X+X",
"+X+X+X+X+X+X+X+X+X+X+X+X+X+X+X+X+X+X+X+X+X+X+XOXOXoXXXXX.X.X.X.X.X.X.XXX.X.X X X|.}.}.{.[.[.[.{.}. X.XoXOX+X+X+X+X+X+X+X+X+X+X+X",
"+X+X+X+X+X+X+X+X+X+X+X+X+X+X+X+X+X+X+X+X+X+X+X+X+X+X+X+X+X+X+X+X+X+X+X+X+X+X+X+X+XOXOXoXoXoXoXoXoXOXOX+X+X+X+X+X+X+X+X+X+X+X+X+X",
"+X+X+X+X+X+X+X+X+X+X+X+X+X+X+X+X+X+X+X+X+X+X+X+X+X+X+X+X+X+X+X+X+X+X+X+X+X+X+X+X+X+X+X+X+X+X+X+X+X+X+X+X+X+X+X+X+X+X+X+X+X+X+X+X",
"+X+X+X+X+X+X+X+X+X+X+X+X+X+X+X+X+X+X+X+X+X+X+X+X+X+X+X+X+X+X+X+X+X+X+X+X+X+X+X+X+X+X+X+X+X+X+X+X+X+X+X+X+X+X+X+X+X+X+X+X+X+X+X+X",
"+X+X+X+X+X+X+X+X+X+X+X+X+X+X+X+X+X+X+X+X+X+X+X+X+X+X+X+X+X+X+X+X+X+X+X+X+X+X+X+X+X+X+X+X+X+X+X+X+X+X+X+X+X+X+X+X+X+X+X+X+X+X+X+X"
};
