/* XPM */
static char *result[] = {
/* columns rows colors chars-per-pixel */
"64 64 175 2 ",
"   c #C7A5A6",
".  c #C9A2A5",
"X  c #CAA3A4",
"o  c #CBA3A4",
"O  c #CBA2A6",
"+  c #CAA3A6",
"@  c #C8A4A4",
"#  c #C8A4A6",
"$  c #C9A5A7",
"%  c #CBA4A7",
"&  c #C1A7A8",
"*  c #C1A7AA",
"=  c #C5A5A8",
"-  c #C4A6A8",
";  c #C9A5A9",
":  c #D7AAAD",
">  c #D6ACAD",
",  c #D5ADAE",
"<  c #D6ACAE",
"1  c #D7ADAF",
"2  c #D8ABAE",
"3  c #D5ACB0",
"4  c #D4ADB0",
"5  c #D6ACB0",
"6  c #DBB7B7",
"7  c #DFB5B7",
"8  c #DBB7B9",
"9  c #DAB7BB",
"0  c #DBB7BB",
"q  c #DEB5B9",
"w  c #DDB6B9",
"e  c #DFB7B8",
"r  c #D7B9BB",
"t  c #D8B8B9",
"y  c #DAB8B9",
"u  c #D8B8BB",
"i  c #D9B9BC",
"p  c #E2B4B7",
"a  c #E3B5B8",
"s  c #E0B6B8",
"d  c #DFBFC2",
"f  c #E1BFC0",
"g  c #E2BEC0",
"h  c #E1BEC2",
"j  c #E2BEC2",
"k  c #DDC0C2",
"l  c #DEC0C2",
"z  c #DFC1C3",
"x  c #DECACC",
"c  c #DFCBCC",
"v  c #DECBCD",
"b  c #DFCBCD",
"n  c #E4C7C9",
"m  c #E7C7C8",
"M  c #E7C7CA",
"N  c #E5C8CA",
"B  c #E6C8CA",
"V  c #E2C9CC",
"C  c #E3C9CC",
"Z  c #E2C9CD",
"A  c #E0CACC",
"S  c #E5C8CC",
"D  c #E6C9CD",
"F  c #ECCFD1",
"G  c #E7D2D1",
"H  c #E7D1D3",
"J  c #E6D2D3",
"K  c #E5D2D4",
"L  c #E7D3D4",
"P  c #E6D3D5",
"I  c #E9D1D1",
"U  c #E9D0D3",
"Y  c #EED0D2",
"T  c #F6DEDE",
"R  c #FBDBDC",
"E  c #FBDBDE",
"W  c #FEDADC",
"Q  c #F3DFE0",
"!  c #F6DDE0",
"~  c #FFDFE1",
"^  c #F0E0E1",
"/  c #F1E5E5",
"(  c #F2E6E6",
")  c #F3E7E7",
"_  c #F7E5E5",
"`  c #FEE1E3",
"'  c #FFE1E3",
"]  c #FCE2E3",
"[  c #FAE1E4",
"{  c #F9E3E5",
"}  c #FBE2E5",
"|  c #FBE2E6",
" . c #FEE1E5",
".. c #FDE3E4",
"X. c #FCE2E5",
"o. c #FFE2E4",
"O. c #FFE3E5",
"+. c #FCE3E6",
"@. c #F8E4E5",
"#. c #F8E4E6",
"$. c #FFE4E6",
"%. c #F2E6E8",
"&. c #FFE7E9",
"*. c #FFE7EA",
"=. c #FFE7EB",
"-. c #FFE7EC",
";. c #FFE8EA",
":. c #FFE9EA",
">. c #FFE8EB",
",. c #FFE9EB",
"<. c #FBEBEC",
"1. c #FFE8EC",
"2. c #FFE9EC",
"3. c #FFE9ED",
"4. c #FDEAEC",
"5. c #FFEAEC",
"6. c #FFEBEC",
"7. c #FFEAEE",
"8. c #FFEBEE",
"9. c #FFEBEF",
"0. c #FFECEE",
"q. c #FFECF0",
"w. c #FFEDF0",
"e. c #FFEEF0",
"r. c #FFEFF0",
"t. c #FFEEF1",
"y. c #FFEFF1",
"u. c #FFEFF2",
"i. c #FFEFF3",
"p. c #FFF0F0",
"a. c #FFF0F1",
"s. c #FFF0F2",
"d. c #FFF0F3",
"f. c #FFF1F3",
"g. c #FFF1F4",
"h. c #FFF3F6",
"j. c #FFF4F5",
"k. c #FFF4F6",
"l. c #FFF5F6",
"z. c #FFF4F8",
"x. c #FFF5F8",
"c. c #FFF6F8",
"v. c #FFF7F8",
"b. c #FFF7F9",
"n. c #FFF6FA",
"m. c #FFF7FA",
"M. c #FFF8F8",
"N. c #FFF8FA",
"B. c #FFF9FA",
"V. c #FFF9FB",
"C. c snow",
"Z. c #FFFBFA",
"A. c #FFFAFB",
"S. c #FFFBFB",
"D. c #FFFCFB",
"F. c #FFFDFB",
"G. c #FFFBFC",
"H. c #FFFAFD",
"J. c #FFFBFD",
"K. c #FFFCFC",
"L. c #FFFCFD",
"P. c #FFFDFD",
"I. c #FDFFFC",
"U. c #FEFEFC",
"Y. c #FFFEFD",
"T. c #FEFFFD",
"R. c #FFFFFD",
"E. c #FFFDFE",
"W. c #FFFCFF",
"Q. c #FFFDFF",
"!. c #FEFEFE",
"~. c #FEFEFF",
"^. c #FFFEFF",
"/. c #FEFFFF",
"(. c white",
/* pixels */
"(.(.(.(.(.(.(.(.(.(.(.(.!.(.!.(.(.(.(.(.(.(.(.(.(.(.(.(.(.(.(.(.(.(.(.(.(.(.(.(.(.(.(.(.(.(.(.(.(.(.(.(.(.(.(.(.(.(.(.(.(.(.(.(.",
"(.(.(.(.(.(.(.(.(.(.(.(.^.Y.L.L.^.(.(.(.(.(.(.(.(.(.(.(.(.(.(.(.(.(.(.(.(.(.(.(.(.(.(.(.(.(.(.(.(.(.(.(.(.(.(.(.(.(.(.(.(.(.(.(.",
"(.(.(.(.(.(.(.(././.(.^.P./ V N.L.(.(.(././.(.(.(.(.(.(.(.(.(.(.(.(.(.(.(.(.(.(.U.R.(.(.(.(.(.(.(.(.(.(.(.(.(.(.(.(.(.(.(.(.(.(.",
"(.(.(.(.(.(.(.(././.(.^.P.p.i c.L.(.(.(././.(.(.(.(.(.(.(.(.(.(.(.^.L.L.^.(.(.(.(.R.(.(.(.(.(.(.(.(.(.(.(.(.(.(.(.(.(.(.(.(.(.(.",
"T.T.(.(.(.(.(.(.(.(.(.^.P.a.y x.L.(.(.(.(.(.(.(.(.(.(.(.(.(.(.(./.L.` N L.(.(.(.(.(.(.(.(.!.(.(.(.(.(.(.(.(.(.(.(.(.(.(.(.(.(.(.",
"T.T.(.(.(.(.(.(.(.(.(.^.P.p.8 l.S.(.(.(.(.(.(.(.(.(.(.(.(.(.(.(./.S.2.w S.(.(.(.(.(.(.!.(.^.Y.Y.^.(.(.(.(.(.(.(.(.(.(.(.(.(.(.(.",
"(.(.(.(.R.R.(.(.(.(.(.^.L.r.q k.S.(.^.^.^.^.(.(.(.(.(.(.(.(.(.(.(.S.2.w S.!.(.(.(.(.(.(.(.Y.S.S.Y.(.(.(.(.(.(.(.(.(.(.(.(.(.(.(.",
"(.(.(.(.R.R.(.(.(.(.(.^.P.^ - c.L.(.^.^.^.^.(.(.(.(.(.(.(.(.(.(.(.S.;.7 S.(.^.^.E.^.E.(.(.L.{ A L.(.(.(.(.(.(.(.(.(.(.(.(.(.(.(.",
"(.(.(.(.(.(.(.(.(.(.(.(.^.Y.L.L.^.(.(.(.(.(.(.(.(.(.(.(.(.(.(.(.(.A.*.p A.^.Y.L.L.L.^.(.(.D.8.t L.(.(.(.(.(.(.(.(.(.(.(.(.(.(.(.",
"(.(.(.(.(.(.(.(.(.!.(.(././.(.(.(.(.(.(.(.(.(.(.(.(.(.(.(.(.(.(.(.S.W # S.^.P.( x V.P.(.(.S.>.w S.(.(.(.(.(.(.(.(.(.(.(.(.(.(.(.",
"(.(.(.(.(.(.(.(.(.(.(.(.(.(.(.(.(.(.^.^.(.(.(.(.(.(.(.(.(.(.(.(.(.Y.S.S.Y.^.P.a.r c.G.(.(.S.1.q S.(.(.(.(.(.(.(.(.(.(.(.(.(.(.(.",
"(.(.(.(.(.(.(.(.(.(.(.(.^.Y.L.L.^.(.^.^.!.(.(.!.(.(.(.(.(.(.(.(.(.(.(.(.(.^.P.a.8 l.J.(.(.S.2.w S.(.(.(.(.(.(.(.(.(.(.(.(.(.(.(.",
"(.(.(.(.(.(.(.(.(.(.(.^.P./ V N.L.(.R.R.R.R.(.(.(.(.(.(.(.(.(.(.(.(.(.(.(.^.P.a.8 l.J.(.(.L.E = L.(.(.(.(.(.(.(.(.(.(.(.(.(.(.(.",
"(.(.(.(.(.(.(.(.(.(.(.^.P.p.u c.L.(.R.Y.Y.R.^.(.(.(.(.(.(.(.(.(.(.E.L.L.^.^.P.a.u c.L.(.(.L.b.N.L.(.(.(.(.(.(.(.(.(.(.(.(.(.(.(.",
"(.(.(.(.(.(.(.(.(.(.(.^.P.a.9 x.L.^.L.D.S.L.^.(.(.(.(.(.R.(.(.(.(.L.` N L.^.L.^ & m.P./.(.^.L.L.^.(.(.(.(.(.(.(.(.(.(.(.(.(.(.(.",
"(.(.(.(.(.(.(.(.(.(.(.^.P.y.0 z.J.P.N.U ! @.L.(.(.(.(.(.R.(.(.(.(.S.2.w S.^.P.L.V.A.Y./.(.^.Y.Y.^.^.(.(.(.(.(.(.(.(.(.(.(.(.(.(.",
"(.(.(.(.(.(.(.(.T.I.(.^.L.r.q h.S.L.B O.d.  S.^.(.(.(.(.(.(.(.(.(.S.2.w S.(.^.^.P.P.^.(.(.Y.S.S.L.Y.^.(.(.(.^.^.(.(.(.(.(.(.(.(.",
"(.(.(.(.(.(.(.(.T.T.(.^.P.^ = c.L.S.% i.t.< a.^.^.(.(.(.(.(.(.(.(.S.;.7 S.(.^.Y.^.^.!.^.L.S.K Q @.S.P.(.(.(.^.^.(.(.(.(.(.(.(.(.",
"(.(.(.(.(.(.(.(.(.(.(.(.^.P.L.L.^.S.+ i.t.< a.^.^.(.(.!.(.(.(.(.(.A.*.a A.^.L.D.L.L.^.L.m.N 4.B.$ l.S.(.(.(.(.(.(.(.(.(.(.(.(.(.",
"(.(.(.(.(.(.(.(.(.(.(.(.(.(.(.(.(.D.d *.f.# S.^.(.(.(.(.(.(.(.(.(.S.W # S.P.N.U ! _ P.S.l.# A.B.2 ,.S.(.(.(.(.(.(.(.(.(.(.(.(.(.",
"(.(.(.(.(.(.(.(.(.(.(.(.(.(.(.(.(.P.r.N ' H L.(.(.!.(.(.(.(.(.(.(.^.J.J.E.L.B O.g.  S.S.k.# A.V.2 ;.S.(.(.(.(.(.(.(.(.(.(.(.(.(.",
"(.(.(.(.(.(.(.(.(.(.!.^.P.L.L.L.^.Y.D.S.A.S.Y.(.!.^.Y.Y.^.(.(.(.(.(.(.(.(.S.+ i.t.< a.J.c.l a.V.# j.S.(.(.(.(.(.(.(.(.(.(.(.(.(.",
"(.(.(.(.(.(.(.(./.(.(.L.B.F E X.L.^.Y.Y.P.Y.R.R.(.Y.S.S.Y.(.(.(.R.R././.(.S.+ i.t.< a.L.C.y.v @.U B.P.(.(.(.(.(././.(.(.(.(.(.(.",
"(.(.(.(.(.(.(.(./.(.(.J.M O.g.# S.^.^.Y.^.R.R.R.(.G.} V L.(.(.(.Y.Y.P.P.L.V.g *.f.# S.^.Y.G.S.A.S.L.^.(.(.(.(.(././.(.(.(.(.(.(.",
"(.(.(.(.(.(.(.(.(.(.(.S.+ d.d.4 a.P.L.D.J.L.Y.(.R.S.6.y J.(.(.^.L.S.L ! ] c.0.N ' H L.^.^.^.Y.P.Y.^.(.(.(.(.(.(././.(.(.(.(././.",
"(.(.(.(.(.(.(.(.(.(.(.S.o i.d.4 a.L.C.U ! @.L.(.U.C.1.w S.(.(.P.B.C >.c.# l.N.B.A.S.Y.(.(.^.Y.Y.(.(.(.(.(.(.(.(././.(.(.(.(././.",
"(.(.(.(.(.(.(.(.(.(.(.S.f &.d.+ S.S.M O.g.  S.^.(.S.1.w S./.(.S.l.# V.V.3 1.A.K.P.Y.^.(.(.Y.S.S.P.(.(.(.(.(.(.(.(.(.(.(.(.(.(.(.",
"(.(.(.(.(.(.(.(.(.(.(.L.w.m ~ F L.S.+ d.t.< a.^.^.S.5.8 S./.(.S.k.+ N.V.5 1.S.^.^.^.^.(.(.L.} V L.^.(.(.(.(.(.(.(.(.(.(.(.(.(.(.",
"(.(.(.(.(.(.(.(.^.^.(.^.L.D.S.L.^.S.+ u.t.1 d.^.^.L.E - L.(.(.L.N.k w.n.O k.A.L.L.L.Y.R.R.S.6.y J.(.(.(.(.(.(.(.(.(.(.(.(.(.(.(.",
"(.(.(.(.(.(.(.(.^.^.(.(.(.(.(.(.(.L.d *.g.# H.^.(.L.N.N.L.(.(.Y.S.y.b [ F v.S.) b V.P.R.R.S.1.w S.(.(.(.(.(.(.(.(.(.(.(.(.(.(.(.",
"(.(.(.(.(.(.(.(.(.~.(.(.(.(.!.!.(.Q.r.N ' H L.(.(.^.L.L.^.(.(.^.P.P.L.L.L.L.L.a.r c.L.(.(.S.1.w S.(././.(.(.(.(././.(.(.(.(.(.(.",
"(.(.(.(.(.(.(.(.(.(.(.(.^.Y.L.L.^.^.J.A.A.J.^.(.(.^.Y.Y.^.E.(.(.^.^.(.(.(.^.P.a.8 x.S.(.(.S.5.8 S.(././.(.(.(.(././.(.(.(.(.(.(.",
"(.(.(.(.^.^.(.(.(.(.(.^.P.( V N.L.^.^.P.P.^.^.(.(.Y.S.S.L.Y.^.(.(.(.(.(.(.^.P.a.0 x.S.R.(.G.E = L.(.(.(.(.(.(.(.(.(.(.(.(.(.(.(.",
"(.(.(.(.^.^.(.(.R.R.!.^.P.p.t c.L.(.^.^.^.^.^.^.L.S.P Q @.S.P.(.!.^.G.L.^.^.P.a.u c.D.R.(.L.N.N.L.(.(.(.(.(.(.(.(.(.(.(.(.(.(.(.",
"(.(.^.^.(.(.(.(.(.(.(.^.P.p.y l.D.^.Y.L.L.L.^.L.m.N <.C.# l.S.(.!.L. .S L.^.L.^ * m.L.(.(.^.L.L.^.(.(.(.(.(.(.(.(.(.(.(.(.(.(.(.",
"(.(.^.^.(.(.(.(.(.(.(.^.K.p.6 l.S.^.P.) b V.P.S.l.$ A.C.2 ;.S.(.(.J.2.w S.^.P.J.V.A.P.(.(.^.Y.Y.^.(.(.(.(.(.(.(.(.(.(.(.(.(.(.(.",
"(.(.(.(.(.(.R.R.^.^.(.^.L.r.e k.S.E.P.a.r c.L.C.k.# A.V.: ;.S.(.(.J.2.w S.(.^.^.P.P.^.(.(.Y.S.S.Y.(.(.(.(.(.(.(.(.(.(.(.(.(.(.(.",
"(.(.(.(.(.(.R.R.^.^.(.^.P.^ - c.L.^.P.a.8 l.J.L.c.l r.V.# l.S.(.(.H.1.s S.^.^.Y.^.^.^.(.(.L.} V L.(.(.(.(.(.(.(.(.(.(.(.(.(.(.(.",
"/./.(.(.(.(.(.(.(.(.(.(.^.P.L.L.^.^.P.a.8 l.J.^.J.a.v @.U C.P.(.^.A.*.p A.^.L.S.J.L.^.^.(.S.9.y J.(.(.(.(.(.(.(.(.(.(.(.(.(.(.(.",
"/./.(.(.(.(.(.(.(.(.(.(.(.(.(.(.(.^.P.a.u c.L.(.^.P.S.A.S.L.^.(.^.S.W # S.P.V.U ! @.L.^.(.S.=.w S.(.(.(.(.(.(.(.(.(.(.(.(.(.(.(.",
"(.(.(.(.(.(.(.(.(.(.(.R.^.^.(.(.!.^.L.^ * m.L.(.(.^.Y.P.Y.^.(.(.(.Y.S.D.Y.L.B O.d.  S.^.(.S.1.w S.(.(.(.(.(.(.(.(.(.(.(.(.(.(.(.",
"(.(.(.(.(.(.(.(.(.(.(.R.L.L.S.L.^.^.P.L.V.A.Q.(.(.^.Y.Y.^.(.(.(.(.(././.(.S.+ i.t.< a.^.^.C.5.8 S.(.(.(.(.(.(.(.(.(.(.(.(.(.(.(.",
"(.(.(.(.(.(.(.(.(.(.(.P.B.Y R ..L.(.^.^.P.Q.^.(.(.Y.S.S.Y.(.(.(.(.(.(.(.(.S.+ i.t.< a.^.^.L.E = L.(.(.(.(.(.(.(.(.(.(.(.(.(.(.(.",
"(.(.(.(.(.(.(.(.(.(.(.L.B O.f.# S.^.Y.Y.Y.^.^.(.(.L.} V L.(.(.^.^.Y.P.L.L.V.j -.g.# S.^.(.L.N.N.L.(.(.(.(.(.(.(.(.(.(.(.(.(.(.(.",
"(.(.(.(.(.(.(.(.(.(.(.S.+ d.d.4 a.P.D.D.S.L.^.(.(.J.7.9 J.(.^.^.L.S.J ! ] c.q.D ' U L.(.(.^.L.L.^.(.(.(.(.(.(.(.(.(.(.(.(.(.(.(.",
"(.(.(.(.(.(.(.(.(.!.(.S.O i.d.4 a.D.C.I T @.L.(.(.S.1.w S.(.^.L.B.C >.c.# l.N.A.A.S.Y.(.(.^.^.^.^.(.(.(.(.(.(.(.(.(.(.(.(.(.(.(.",
"(.(.(.(.(.(.(.(.(.(.(.J.h *.d.+ S.S.m $.g.  S.^.(.S.1.w S.R.(.S.l.# N.C., :.A.P.P.Y.^.(.(.^.H.H.^.(.(.(.(.(.(.(.(.(.(.(.(.(.(.(.",
"(.(.(.(.(.(.(.(.(.(.(.W.w.M ~ F L.S.. i.w.< a.^.^.S.5.8 S.R.(.S.k.+ V.C., :.S.^.^.^.E.(.(.L.| Z L.(.(.(.(.(.(.(.(.(.(.(.(.(.(.(.",
"(.(.(.(.(.(.(.(.(.(.(.^.L.L.S.L.^.S.+ i.t.< d.^.^.L.E = D.(.(.L.N.k w.v.X l.A.L.L.L.^.(.(.J.7.9 J.(.(.(.(.(.(.(././.(.(.(.(.(.(.",
"(.(.(.(.(.(.(.(.(.(.(.(.(.(.(.(.(.S.h >.g.# H.^.(.L.N.N.L.(.(.Y.S.y.c +.F M.S.%.x V.P.(.(.S.=.w S.(.(.(.(.(.(.(././.(.(.(.(.(.(.",
"(.(.(.(.(.(.(.(.(.(.(.(.(.(.(.(.^.L.e.N o.H L.(.(.^.L.L.^.(.(.^.Y.P.P.L.L.L.L.a.r c.G.(.(.S.1.w S.(.(.(.(.(.(.(.(.(.(.(.(.(.(.(.",
"(.(.(.(.(.(.(.(.(.(.(.(.(.(.(.(.^.Y.S.A.A.J.^.(.(.(.(.(.(.(.(.(.(.(.(.(.(.^.K.y.8 l.J.(.(.S.5.8 S.(.(.(.(.(.(.(.(.(.(.(.(.(.(.(.",
"(.(.(.(.(.(.(.(.(.(.(.(.(.(.(.(.(.^.Y.P.P.^.^.(.(.(.(.(.(.!.(.!.(.(.(.(.(.^.L.s.8 l.J.(.(.L.E = L.(.(.(.^.^.(.(.(.(.(.(.(.(.(.(.",
"(.(.(.(.(.(.(.(.(.(.(.(.(.(.(.(.(.(.^.Y.^.^.^.(.(.(.(.(.(.(.(.(.(.(.(.(.(.E.L.y.u c.L.(.(.L.b.N.L.(.(.(.^.^.(.(.(.(.(.(.(.(.(.(.",
"(.(.(.(.(.(.(.(.(.(.(.(.(.(.(.(.(.^.L.D.J.L.^.(.^.^.(.(.(.(.(.(.(.(.(.(.(.^.L.^ & m.L.(.(.^.L.L.^.(.(.(.(.(.^.^.(.(.(.(.(.(.(.(.",
"(.(.(.(.(.(.(.(.(.(.(.(.(.(.(.(.(.P.V.U ! @.L.^.E.^.(.(.(.(.(.(.(.(.(.(.(.E.P.L.V.A.P.(.(.^.Y.Y.^.^.(.(.(.(.^.(.(.(.(.(.(.(.(.(.",
"(.(.(.(.(.(.(.(.(.(.(.(.(.(.(.(.(.L.B O.d.  S.^.^.(.(.(.(.(.(.(.(.(.(.(.(.(.^.^.P.P.^.(.(.Y.S.S.L.Y.^.(.(.(.(.(.(./.(.(.(.(.(.(.",
"(.(.(.(.(.(.(.(.(.(.(.(.(.(.(.(.(.J.% i.t.< y.^.^.(.(.(.(.(.(.(.(.(.(.(.(.(.(.(.(.(.(.^.L.S.K Q #.S.P.(.(.(.(.(././.(.(.(.(.(.(.",
"(.(.(.(.(.(.(.(.(.(.(.(.(.(.(.(.(.S.+ i.t.> p.Y.^.(.(.(.(.(.(.(.(.(.(.(.(.(.(.(.(.(.(.L.m.n <.C.; x.J.(.(.(.(.(.(.(.(.(.(.(.(.(.",
"(.(.(.(.(.(.(.(.(.(.(.(.(.(.(.(.(.D.h *.f.@ Z.R.(.(.(.(.(.(.(.(.(.(.(.(.(.(.(.(.(.(.(.S.l.# A.V.2 3.S.(.(.(.(.(.(.(.(.(.(.(.(.(.",
"(.(.(.(.(.(.(.(.(.(.(.(.(.(.(.(.(.P.e.N ' G F.R.(.(.(.(.(.(.(.(.(.(.(.(.(.(.(.(.(.(.(.C.k.# A.V.2 ;.S.(.(.(.(.(.(.(.(.(.(.(.(.(.",
"(.(.(.(.(.(.(.(.(.(.(.(.(.(.(.(.(.Y.S.A.A.S.Y.R.(.(.(.(.(.(.(.(.(.(.(.(.(.(.(.(.(.(.(.L.c.z a.V.# j.S.(.(.(.(.(.(.(.(.(.(.(.(.(.",
"(.(.(.(.(.(.(.(.(.(.(.(.(.(.(.(.^.^.Y.P.P.Y.^.(.(.(.(.(././.(.(.(.(.(.(.(.(.(.(.(.(.(.^.S.a.v #.U V.P.(.(.(././././.(.(.(.(.(.(.",
"(.(.(.(.(.(.(.(.(.(.(.(.(.(.(.(.^.^.(.(.(.(.(.(.(.(.(.(././.(.(.(.(.(.(.(.(.(.(.(.(.(.(.^.F.V.N.H.L.^.(.(.(././././.(.(.(.(.(.(."
};
