/* XPM */
static char *result[] = {
/* columns rows colors chars-per-pixel */
"64 64 72 1 ",
"  c black",
". c #010101",
"X c #020202",
"o c gray1",
"O c #040404",
"+ c gray2",
"@ c #060606",
"# c #070707",
"$ c gray3",
"% c #090909",
"& c gray4",
"* c #0B0B0B",
"= c #0C0C0C",
"- c gray5",
"; c #0E0E0E",
": c gray6",
"> c #101010",
", c #111111",
"< c gray7",
"1 c #151515",
"2 c #181818",
"3 c #1E1E1E",
"4 c #202020",
"5 c gray15",
"6 c gray16",
"7 c #2C2C2C",
"8 c #2F2F2F",
"9 c #343434",
"0 c #434343",
"q c gray32",
"w c #585858",
"e c #5F5F5F",
"r c gray49",
"t c gray50",
"y c #808080",
"u c gray51",
"i c gray52",
"p c #888888",
"a c #8B8B8B",
"s c gray62",
"d c #B1B1B1",
"f c gray",
"g c gray77",
"h c #C6C6C6",
"j c gray82",
"k c #D5D5D5",
"l c #DFDFDF",
"z c #E2E2E2",
"x c gray89",
"c c #E4E4E4",
"v c #E9E9E9",
"b c #EAEAEA",
"n c gray92",
"m c gray93",
"M c #EEEEEE",
"N c #EFEFEF",
"B c gray94",
"V c #F1F1F1",
"C c gray95",
"Z c #F3F3F3",
"A c #F4F4F4",
"S c gray96",
"D c #F6F6F6",
"F c gray97",
"G c #F8F8F8",
"H c #F9F9F9",
"J c gray98",
"K c #FBFBFB",
"L c gray99",
"P c #FDFDFD",
"I c #FEFEFE",
"U c white",
/* pixels */
"UUUUUUUUUUUUUUUUUUUUUUUUUUUUUUUUUUUUUUUUUUUUUUUUUUUUUUUUUUUUUUUU",
"UUUUUUUUUUUUUUUUUUUUUUUUUUUUUUUUUUUUUUUUUUUUUUUUUUUUUUUUUUUUUUUU",
"UUUUUUUUUUUUUUUUUUUUUUUUUUUUUUUUUUUUUUUUUUUUUUUUUUUUUUUUUUUUUUUU",
"UUUUUUUUUUUUUUUUUUUUUUUUUUUUUUUUUUUUUUUUUUUUUUUUUUUUUUUUUUUUUUUU",
"UUUUUUUUUUUUUUUUUUUUUUUUUUUUUUUUUUUUUUUUUUUUUUUUUUUUUUUUUUUUUUUU",
"UUUUUUUUUUUUUUUUUUUUUUUUUUUUUUUUUUUUUUUUUUUUUUUUUUUUUUUUUUUUUUUU",
"UUUUUUUUUUUUUUUUUUUUUUUUUUUUUUUUUUUPIPKDPUUUUUUUUUUUUUUUUUUUUUUU",
"UUUUUUUUUUUUUUUUUUUUUUUUUUUUUUPKs O ; -  X#UIUUUUUUUUUUUUUUUUUUU",
"UUUUUUUUUUUUUUUUUUUUUUUUUUUUIl *. .X    ,  +UUUUUUUUUUUUUUUUUUUU",
"UUUUUUUUUUUUUUUUUUUUUUUUUUPe$$oXdHUJUIUA.    LUUUUUUUUUUUUUUUUUU",
"UUUUUUUUUUUUUUUUUUUUUUUUUk oXjVUIUUUUUUGHSU+XzUUUUUUUUUUUUUUUUUU",
"UUUUUUUUUUUUUUUUUUUUUUUP2$ jLUUUUUUUUUUIIUUL  LUUUUUUUUUUUUUUUUP",
"UUUUUUUUUUUUUUUUUUUUUUU;XXGUUUUUUUUUUUUUUUUU. IUUUUUUUUUUUUUUUUP",
"UUUUUUUUUUUUUUUUUUUUUU,XaUUUUUUUUUUUUUUUUUUU& UUUUUUUUUUUUUUUUUU",
"UUUUUUUUUUUUUUUUUUUUU+ KJUUUUUUUUUUUUUUUUUUUP  UUUUUUUUUUUUUUUUU",
"UUUUUUUUUUUUUUUUUUUG oUIUUUUUUUUUUUUUUUUUUUUBo&PUUUUUUUUUUUUUUUP",
"UUUUUUUUUUUUUUUUUUP XVUUUUUUUUUUUUUUUUUUUUUUU @HUUUUUUUUUUUUUUUU",
"UUUUUUUUUUUUUUUUUU  qUUUUUUUUUUUUUUUUUUUUUUUU5 JUUUUUUUUUUUUUUUU",
"UUUUUUUUUUUUUUUUUJ  UPUUUIPUUUUUUUUUUUUUUUUUUG BUUUUUUUUUUUUUUUP",
"UUUUUUUUUUUUUUUUU# UUUUUUP< ZUUUUUUUUUUIIUUUUK tUUUUUUUUUUUUUUUP",
"UUUUUUUUUUUUUUUUL  UUUUUUL  UUUUUUUUUUN @UUUUF  UUUUUUUUUUUUUUUP",
"UUUUUUUUUUUUUUUUroKIUUUUUIKUIUUUUUUUUUI oUUUUKXoUUUUUUUUUUUUUUUL",
"UUUUUUUUUUUUUUUU@ CUUUUUUUUUUUUUUUUUUUJHFUUUUK  UUUUUUUUUUUUUUUL",
"UUUUUUUUUUUUUUUU  IUUUUUUUUUUUUUUUUUUUUUUUUUUI oIUUUUUUUUUUUUUIU",
"UUUUUUUUUUUUUUUU.XUUUUUUUUUUUUUUUUUUUUUUUUUUUI 9UUUUUUUUUUUUUUPU",
"UUUUUUUUUUUUUUUU .UUUUUUIUUUUUUUUUUUUUUUUUUUUP PUUUUUUUUUUUUUUUU",
"UUUUUUUUUUUUUUUUO UUUUUU8oGUUUUUUUUUUUUUUUUUUXOFUUUUUUUUUUUUUUUU",
"UUUUUUUUUUUUUUUP. LUUUUP   NJUUUUUUUUUUUUUUUIo IUUUUUUUUUUUUUUUU",
"UUUUUUUUUUUUUUUPXXUUUUUPV= . IUIUUUULUb$DUUUU .UUUUUUUUUUUUUUUUU",
"UUUUUUUUUUUUUUUUm#gAUUUUUH+% O.PKIUHi.  7UUI oJUUUUUUUUUUUUUUUUU",
"UUUUUUUUUUUUUUUUU. UPUUUUUUK . X      X@IUUU. UUUUUUUUUUUUUUUUUU",
"UUUUUUUUUUUUUUUUU: fUUUUUUUUPF   .   wVUUUL  UUUUUUUUUUUUUUUUUPU",
"UUUUUUUUUUUUUUUUUL .xGUUUUUUUUIIUKPKJIUUUI$ %UUUUUUUUUUUUUUUUUPU",
"UUUUUUUUUUUUUUUUUUF XUPUUUUUUUUUUUUUUUUILy  KUUUUUUUUUUUUUUUUULU",
"UUUUUUUUUUUUUUUUUUUU# vNUUUUUUUUUUUUUUUU-  SUUUUUUUUUUUUUUUUUULU",
"UUUUUUUUUUUUUUUUUUUUU* +SSIUUUUUUUUUUUM* -nPUUUUUUUUUUUUUUUUUIUU",
"UUUUUUUUUUUUUUUUUUUUULo o4KUUUIUUUPUUh.  KUUUUUUUUUUUUUUUUUUUPUU",
"UUUUUUUUUUUUUUUUUUUUUUUH OXoOJUUHUc o >uPUUUUUUUUUUUUUUUUUUUUUUU",
"UUUUUUUUUUUUUUUUUUUUUUUUUG. %o     @ 0KUUUUUUUUUUUUUUUUUUUUUUUUU",
"UUUUUUUUUUUUUUUUUUUUUUUUUUULJL&,+3UPLUUUUUUUUUUUUUUUUUUUUUUUUPUU",
"UUUUUUUUUUUUUUUUUUUUUUUUUUUUU6 &KUUUUUUUUUUUUUUUUUUUUUUUUUUUUUUU",
"UUUUUUUUUUUUUUUUUUUUUUUUUUUUU+ =UUUUUUUUUUUUUUUUUUUUUUUUUUUUUUUU",
"UUUUUUUUUUUUUUUUUUUUUUUUUUUUU  VUUUUUUUUUUUUUUUUUUUUUUUUUUUUUUUU",
"UUUUUUUUUUUUUUUUUUUUUUUUUUUUU  UUUUUUUUUUUUUUUUUUUUUUUUUUUUUUUUU",
"UUUUUUUUUUUUUUUUUUUUUUUUUUUUU  UUUUUUUUUUUUUUUUUUUUUUUUUUUUUUPUU",
"UUUUUUUUUUUUUUUUUUUUUUUUUUUUU  UUUUUUUUUUUUUUUUUUUUUUUUUUUUUULUU",
"UUUUUUUUUUUUUUUUUUUUUUUUUUUUU% AUUUUUUUUUUUUUUUUUUUUUUUUUUUUULUU",
"UUUUUUUUUUUUUUUUUUUUUUUUUUUUU1 UUUUUUUUUUUUUUUUUUUUUUUUUUUUUULUU",
"UUUUUUUUUUUUUUUUUUUUUUUUUUUUUp UUUUUUUUUUUUUUUUUUUUUUUUUUUUUIPUU",
"UUUUUUUUUUUUUUUUUUUUUUUUUUUUUJ.UUUUUUUUUUUUUUUUUUUUUUUUUUUUUPUUU",
"UUUUUUUUUUUUUUUUUUUUUUUUUUUUUL ZUUUUUUUUUUUUUUUUUUUUUUUUUUUUUUUU",
"UUUUUUUUUUUUUUUUUUUUUUUUUUUUUU BUUUUUUUUUUUUUUUUUUUUUUUUUUUUPUUU",
"UUUUUUUUUUUUUUUUUUUUUUUUUUUUUUO<UUUUUUUUUUUUUUUUUUUUUUUUUUUUPUUU",
"UUUUUUUUUUUUUUUUUUUUUUUUUUUUUI &UUUUUUUUUUUUUUUUUUUUUUUUUUUUUUUU",
"UUUUUUUUUUUUUUUUUUUUUUUUUUUUUUX IUUUUUUUUUUUUUUUUUUUUUUUUUUUUUUU",
"UUUUUUUUUUUUUUUUUUUUUUUUUUUUUIO@IUUUUUUUUUUUUUUUUUUUUUUUUUUUUUUU",
"UUUUUUUUUUUUUUUUUUUUUUUUUUUUUU .JUUUUUUUUUUUUUUUUUUUUUUUUUUUUUUU",
"UUUUUUUUUUUUUUUUUUUUUUUUUUUUUU XLUUUUUUUUUUUUUUUUUUUUUUUUUUUPUUU",
"UUUUUUUUUUUUUUUUUUUUUUUUUUUUUU. LUUUUUUUUUUUUUUUUUUUUUUUUUUULUUU",
"UUUUUUUUUUUUUUUUUUUUUUUUUUUUUUo FUUUUUUUUUUUUUUUUUUUUUUUUUUULUUU",
"UUUUUUUUUUUUUUUUUUUUUUUUUUUUUUUUUUUUUUUUUUUUUUUUUUUUUUUUUUUILUUU",
"UUUUUUUUUUUUUUUUUUUUUUUUUUUUUUUUUUUUUUUUUUUUUUUUUUUUUUUUUUUPUUUU",
"UUUUUUUUUUUUUUUUUUUUUUUUUUUUUUUUUUUUUUUUUUUUUUUUUUUUUUUUUUUUUUUU",
"UUUUUUUUUUUUUUUUUUUUUUUUUUUUUUUUUUUUUUUUUUUUUUUUUUUUUUUUUUUUUUUU"
};
